<svg width="1622" height="569" viewBox="0 0 1622 569" fill="none" xmlns="http://www.w3.org/2000/svg">
<mask id="path-1-outside-1_2_42" maskUnits="userSpaceOnUse" x="5" y="103" width="1602" height="363" fill="black">
<rect fill="white" x="5" y="103" width="1602" height="363"/>
<path d="M113.628 455.182V113.364H135.526V455.182H113.628ZM173.179 225.122C172.022 214.084 167.215 205.494 158.759 199.352C150.391 193.21 139.131 190.139 124.977 190.139C115.275 190.139 107.041 191.563 100.276 194.412C93.5104 197.171 88.3475 200.999 84.7869 205.895C81.2263 210.702 79.4015 216.176 79.3125 222.318C79.2235 227.481 80.3362 231.976 82.6506 235.804C85.054 239.543 88.3475 242.792 92.5312 245.551C96.715 248.222 101.477 250.536 106.818 252.494C112.159 254.364 117.723 255.966 123.509 257.301L148.477 263.443C159.871 266.025 170.509 269.496 180.389 273.858C190.27 278.131 198.904 283.516 206.293 290.014C213.681 296.423 219.467 304.034 223.651 312.847C227.834 321.659 229.926 331.807 229.926 343.29C229.926 359.847 225.742 374.223 217.375 386.418C209.008 398.613 196.991 408.093 181.324 414.858C165.657 421.623 146.741 425.006 124.577 425.006C102.679 425.006 83.6742 421.668 67.5625 414.991C51.4508 408.226 38.8996 398.301 29.9091 385.216C20.9186 372.042 16.1563 355.841 15.6222 336.614H69.4318C70.0549 345.871 72.7699 353.616 77.5767 359.847C82.3835 365.989 88.7926 370.617 96.804 373.733C104.815 376.759 113.85 378.273 123.909 378.273C134.057 378.273 142.869 376.804 150.347 373.866C157.913 370.929 163.788 366.834 167.972 361.582C172.155 356.241 174.247 350.055 174.247 343.023C174.247 336.614 172.333 331.273 168.506 327C164.767 322.638 159.382 318.944 152.349 315.918C145.406 312.891 136.95 310.176 126.98 307.773L96.804 300.162C73.9271 294.465 55.857 285.697 42.5938 273.858C29.3305 261.93 22.7434 245.952 22.8324 225.923C22.7434 209.545 27.1496 195.213 36.0511 182.929C44.9527 170.556 57.1477 160.942 72.6364 154.088C88.125 147.234 105.75 143.807 125.511 143.807C145.54 143.807 163.031 147.234 177.986 154.088C193.029 160.942 204.779 170.511 213.236 182.795C221.692 194.991 226.009 209.099 226.188 225.122H173.179ZM289.15 421V147.545H395.434C416.264 147.545 433.933 151.507 448.443 159.429C462.952 167.262 473.99 178.122 481.556 192.009C489.212 205.806 493.039 221.651 493.039 239.543C493.039 257.524 489.167 273.413 481.423 287.21C473.768 301.008 462.552 311.823 447.775 319.656C433.088 327.401 415.24 331.273 394.233 331.273H325.735V286.543H385.687C397.17 286.543 406.606 284.54 413.994 280.534C421.471 276.528 427.035 271.009 430.684 263.977C434.334 256.945 436.159 248.8 436.159 239.543C436.159 230.285 434.334 222.185 430.684 215.241C427.035 208.209 421.471 202.779 413.994 198.952C406.517 195.035 396.992 193.077 385.42 193.077H344.562V421H289.15ZM551.028 421V147.545H733.42V193.344H606.44V261.307H723.94V307.105H606.44V375.202H734.088V421H551.028ZM788.872 193.344V147.545H1011.45V193.344H927.469V421H872.725V193.344H788.872ZM1306.08 284.273C1306.08 314.004 1300.47 339.329 1289.26 360.247C1278.04 381.166 1262.82 397.144 1243.59 408.182C1224.45 419.22 1202.82 424.739 1178.7 424.739C1154.49 424.739 1132.77 419.22 1113.54 408.182C1094.4 397.055 1079.22 381.032 1068.01 360.114C1056.88 339.195 1051.32 313.915 1051.32 284.273C1051.32 254.542 1056.88 229.217 1068.01 208.298C1079.22 187.38 1094.4 171.402 1113.54 160.364C1132.77 149.326 1154.49 143.807 1178.7 143.807C1202.82 143.807 1224.45 149.326 1243.59 160.364C1262.82 171.402 1278.04 187.38 1289.26 208.298C1300.47 229.217 1306.08 254.542 1306.08 284.273ZM1250 284.273C1250 264.511 1247.02 247.866 1241.05 234.335C1235.18 220.716 1226.86 210.435 1216.08 203.491C1205.4 196.459 1192.94 192.943 1178.7 192.943C1164.46 192.943 1151.95 196.459 1141.18 203.491C1130.5 210.435 1122.17 220.716 1116.21 234.335C1110.33 247.866 1107.4 264.511 1107.4 284.273C1107.4 304.034 1110.33 320.724 1116.21 334.344C1122.17 347.874 1130.5 358.155 1141.18 365.188C1151.95 372.131 1164.46 375.602 1178.7 375.602C1192.94 375.602 1205.4 372.131 1216.08 365.188C1226.86 358.155 1235.18 347.874 1241.05 334.344C1247.02 320.724 1250 304.034 1250 284.273ZM1596.5 147.545V421H1548.3L1426.39 244.616H1424.39V421H1368.98V147.545H1417.84L1539.08 323.795H1541.49V147.545H1596.5Z"/>
</mask>
<path d="M113.628 455.182V113.364H135.526V455.182H113.628ZM173.179 225.122C172.022 214.084 167.215 205.494 158.759 199.352C150.391 193.21 139.131 190.139 124.977 190.139C115.275 190.139 107.041 191.563 100.276 194.412C93.5104 197.171 88.3475 200.999 84.7869 205.895C81.2263 210.702 79.4015 216.176 79.3125 222.318C79.2235 227.481 80.3362 231.976 82.6506 235.804C85.054 239.543 88.3475 242.792 92.5312 245.551C96.715 248.222 101.477 250.536 106.818 252.494C112.159 254.364 117.723 255.966 123.509 257.301L148.477 263.443C159.871 266.025 170.509 269.496 180.389 273.858C190.27 278.131 198.904 283.516 206.293 290.014C213.681 296.423 219.467 304.034 223.651 312.847C227.834 321.659 229.926 331.807 229.926 343.29C229.926 359.847 225.742 374.223 217.375 386.418C209.008 398.613 196.991 408.093 181.324 414.858C165.657 421.623 146.741 425.006 124.577 425.006C102.679 425.006 83.6742 421.668 67.5625 414.991C51.4508 408.226 38.8996 398.301 29.9091 385.216C20.9186 372.042 16.1563 355.841 15.6222 336.614H69.4318C70.0549 345.871 72.7699 353.616 77.5767 359.847C82.3835 365.989 88.7926 370.617 96.804 373.733C104.815 376.759 113.85 378.273 123.909 378.273C134.057 378.273 142.869 376.804 150.347 373.866C157.913 370.929 163.788 366.834 167.972 361.582C172.155 356.241 174.247 350.055 174.247 343.023C174.247 336.614 172.333 331.273 168.506 327C164.767 322.638 159.382 318.944 152.349 315.918C145.406 312.891 136.95 310.176 126.98 307.773L96.804 300.162C73.9271 294.465 55.857 285.697 42.5938 273.858C29.3305 261.93 22.7434 245.952 22.8324 225.923C22.7434 209.545 27.1496 195.213 36.0511 182.929C44.9527 170.556 57.1477 160.942 72.6364 154.088C88.125 147.234 105.75 143.807 125.511 143.807C145.54 143.807 163.031 147.234 177.986 154.088C193.029 160.942 204.779 170.511 213.236 182.795C221.692 194.991 226.009 209.099 226.188 225.122H173.179ZM289.15 421V147.545H395.434C416.264 147.545 433.933 151.507 448.443 159.429C462.952 167.262 473.99 178.122 481.556 192.009C489.212 205.806 493.039 221.651 493.039 239.543C493.039 257.524 489.167 273.413 481.423 287.21C473.768 301.008 462.552 311.823 447.775 319.656C433.088 327.401 415.24 331.273 394.233 331.273H325.735V286.543H385.687C397.17 286.543 406.606 284.54 413.994 280.534C421.471 276.528 427.035 271.009 430.684 263.977C434.334 256.945 436.159 248.8 436.159 239.543C436.159 230.285 434.334 222.185 430.684 215.241C427.035 208.209 421.471 202.779 413.994 198.952C406.517 195.035 396.992 193.077 385.42 193.077H344.562V421H289.15ZM551.028 421V147.545H733.42V193.344H606.44V261.307H723.94V307.105H606.44V375.202H734.088V421H551.028ZM788.872 193.344V147.545H1011.45V193.344H927.469V421H872.725V193.344H788.872ZM1306.08 284.273C1306.08 314.004 1300.47 339.329 1289.26 360.247C1278.04 381.166 1262.82 397.144 1243.59 408.182C1224.45 419.22 1202.82 424.739 1178.7 424.739C1154.49 424.739 1132.77 419.22 1113.54 408.182C1094.4 397.055 1079.22 381.032 1068.01 360.114C1056.88 339.195 1051.32 313.915 1051.32 284.273C1051.32 254.542 1056.88 229.217 1068.01 208.298C1079.22 187.38 1094.4 171.402 1113.54 160.364C1132.77 149.326 1154.49 143.807 1178.7 143.807C1202.82 143.807 1224.45 149.326 1243.59 160.364C1262.82 171.402 1278.04 187.38 1289.26 208.298C1300.47 229.217 1306.08 254.542 1306.08 284.273ZM1250 284.273C1250 264.511 1247.02 247.866 1241.05 234.335C1235.18 220.716 1226.86 210.435 1216.08 203.491C1205.4 196.459 1192.94 192.943 1178.7 192.943C1164.46 192.943 1151.95 196.459 1141.18 203.491C1130.5 210.435 1122.17 220.716 1116.21 234.335C1110.33 247.866 1107.4 264.511 1107.4 284.273C1107.4 304.034 1110.33 320.724 1116.21 334.344C1122.17 347.874 1130.5 358.155 1141.18 365.188C1151.95 372.131 1164.46 375.602 1178.7 375.602C1192.94 375.602 1205.4 372.131 1216.08 365.188C1226.86 358.155 1235.18 347.874 1241.05 334.344C1247.02 320.724 1250 304.034 1250 284.273ZM1596.5 147.545V421H1548.3L1426.39 244.616H1424.39V421H1368.98V147.545H1417.84L1539.08 323.795H1541.49V147.545H1596.5Z" fill="white"/>
<path d="M113.628 455.182H103.628V465.182H113.628V455.182ZM113.628 113.364V103.364H103.628V113.364H113.628ZM135.526 113.364H145.526V103.364H135.526V113.364ZM135.526 455.182V465.182H145.526V455.182H135.526ZM173.179 225.122L163.233 226.165L164.173 235.122H173.179V225.122ZM158.759 199.352L152.841 207.414L152.861 207.429L152.882 207.443L158.759 199.352ZM100.276 194.412L104.052 203.671L104.104 203.65L104.156 203.628L100.276 194.412ZM84.7869 205.895L92.8225 211.847L92.8486 211.812L92.8743 211.777L84.7869 205.895ZM79.3125 222.318L89.311 222.491L89.3113 222.477L89.3114 222.463L79.3125 222.318ZM82.6506 235.804L74.0933 240.978L74.1644 241.096L74.2388 241.212L82.6506 235.804ZM92.5312 245.551L87.0253 253.899L87.0878 253.94L87.1509 253.98L92.5312 245.551ZM106.818 252.494L103.376 261.883L103.445 261.908L103.515 261.933L106.818 252.494ZM123.509 257.301L125.897 247.591L125.827 247.573L125.757 247.557L123.509 257.301ZM148.477 263.443L146.089 273.154L146.178 273.176L146.268 273.196L148.477 263.443ZM180.389 273.858L176.351 283.006L176.385 283.022L176.42 283.037L180.389 273.858ZM206.293 290.014L199.688 297.523L199.714 297.546L199.74 297.568L206.293 290.014ZM223.651 312.847L232.684 308.558L232.684 308.558L223.651 312.847ZM217.375 386.418L209.129 380.76L209.129 380.76L217.375 386.418ZM181.324 414.858L185.288 424.039L185.288 424.039L181.324 414.858ZM67.5625 414.991L63.691 424.212L63.7127 424.221L63.7345 424.23L67.5625 414.991ZM29.9091 385.216L21.6492 390.853L21.6581 390.866L21.667 390.879L29.9091 385.216ZM15.6222 336.614V326.614H5.34052L5.62602 336.891L15.6222 336.614ZM69.4318 336.614L79.4092 335.942L78.7814 326.614H69.4318V336.614ZM77.5767 359.847L69.6589 365.955L69.6802 365.982L69.7017 366.01L77.5767 359.847ZM96.804 373.733L93.1795 383.053L93.2247 383.071L93.27 383.088L96.804 373.733ZM150.347 373.866L146.727 364.544L146.709 364.552L146.69 364.559L150.347 373.866ZM167.972 361.582L175.793 367.813L175.819 367.781L175.844 367.749L167.972 361.582ZM168.506 327L160.913 333.508L160.984 333.591L161.057 333.672L168.506 327ZM152.349 315.918L148.354 325.085L148.375 325.094L148.396 325.103L152.349 315.918ZM126.98 307.773L124.535 317.469L124.585 317.482L124.637 317.494L126.98 307.773ZM96.804 300.162L99.2495 290.466L99.235 290.462L99.2205 290.458L96.804 300.162ZM42.5938 273.858L35.9069 281.293L35.9207 281.306L35.9346 281.318L42.5938 273.858ZM22.8324 225.923L32.8323 225.968L32.8325 225.918L32.8322 225.869L22.8324 225.923ZM36.0511 182.929L44.1486 188.797L44.1587 188.783L44.1687 188.769L36.0511 182.929ZM72.6364 154.088L76.6831 163.233L76.6831 163.233L72.6364 154.088ZM177.986 154.088L173.819 163.179L173.829 163.183L173.84 163.188L177.986 154.088ZM213.236 182.795L204.999 188.466L205.009 188.48L205.018 188.494L213.236 182.795ZM226.188 225.122V235.122H236.299L236.187 225.011L226.188 225.122ZM123.628 455.182V113.364H103.628V455.182H123.628ZM113.628 123.364H135.526V103.364H113.628V123.364ZM125.526 113.364V455.182H145.526V113.364H125.526ZM135.526 445.182H113.628V465.182H135.526V445.182ZM183.124 224.079C181.692 210.419 175.541 199.183 164.635 191.261L152.882 207.443C158.889 211.806 162.351 217.75 163.233 226.165L183.124 224.079ZM164.676 191.291C154.067 183.504 140.499 180.139 124.977 180.139V200.139C137.763 200.139 146.715 202.917 152.841 207.414L164.676 191.291ZM124.977 180.139C114.349 180.139 104.715 181.692 96.395 185.196L104.156 203.628C109.366 201.434 116.2 200.139 124.977 200.139V180.139ZM96.4987 185.153C88.369 188.469 81.5621 193.327 76.6996 200.013L92.8743 211.777C95.133 208.671 98.6518 205.874 104.052 203.671L96.4987 185.153ZM76.7514 199.943C71.9091 206.48 69.432 213.998 69.3136 222.173L89.3114 222.463C89.371 218.354 90.5436 214.924 92.8225 211.847L76.7514 199.943ZM69.314 222.146C69.1976 228.894 70.6618 235.303 74.0933 240.978L91.2079 230.63C90.0105 228.65 89.2493 226.068 89.311 222.491L69.314 222.146ZM74.2388 241.212C77.486 246.263 81.8273 250.47 87.0253 253.899L98.0372 237.203C94.8678 235.113 92.6219 232.822 91.0624 230.396L74.2388 241.212ZM87.1509 253.98C92.0248 257.091 97.4524 259.711 103.376 261.883L110.261 243.106C105.502 241.361 101.405 239.352 97.9116 237.122L87.1509 253.98ZM103.515 261.933C109.218 263.929 115.134 265.631 121.26 267.045L125.757 247.557C120.311 246.3 115.1 244.798 110.122 243.056L103.515 261.933ZM121.12 267.012L146.089 273.154L150.866 253.733L125.897 247.591L121.12 267.012ZM146.268 273.196C157.085 275.647 167.104 278.925 176.351 283.006L184.428 264.71C173.913 260.068 162.658 256.403 150.687 253.69L146.268 273.196ZM176.42 283.037C185.43 286.933 193.156 291.778 199.688 297.523L212.897 282.505C204.653 275.254 195.109 269.329 184.358 264.679L176.42 283.037ZM199.74 297.568C206.087 303.074 211.027 309.574 214.617 317.135L232.684 308.558C227.906 298.494 221.274 289.772 212.845 282.46L199.74 297.568ZM214.617 317.135C218.061 324.391 219.926 333.03 219.926 343.29H239.926C239.926 330.584 237.607 318.928 232.684 308.558L214.617 317.135ZM219.926 343.29C219.926 358.078 216.22 370.426 209.129 380.76L225.621 392.075C235.265 378.019 239.926 361.615 239.926 343.29H219.926ZM209.129 380.76C201.984 391.173 191.567 399.542 177.36 405.677L185.288 424.039C202.414 416.644 216.031 406.052 225.621 392.075L209.129 380.76ZM177.36 405.677C163.259 411.766 145.767 415.006 124.577 415.006V435.006C147.716 435.006 168.056 431.48 185.288 424.039L177.36 405.677ZM124.577 415.006C103.669 415.006 86.0216 411.816 71.3905 405.753L63.7345 424.23C81.3269 431.519 101.689 435.006 124.577 435.006V415.006ZM71.434 405.771C56.9054 399.671 45.9479 390.901 38.1511 379.553L21.667 390.879C31.8514 405.702 45.9962 416.782 63.691 424.212L71.434 405.771ZM38.169 379.579C30.4634 368.288 26.1102 354.046 25.6183 336.336L5.62602 336.891C6.20226 357.636 11.3737 375.796 21.6492 390.853L38.169 379.579ZM15.6222 346.614H69.4318V326.614H15.6222V346.614ZM59.4544 337.285C60.1862 348.158 63.4387 357.891 69.6589 365.955L85.4945 353.739C82.1011 349.34 79.9237 343.585 79.4092 335.942L59.4544 337.285ZM69.7017 366.01C75.7268 373.709 83.6694 379.355 93.1795 383.053L100.428 364.413C93.9158 361.88 89.0402 358.269 85.4518 353.684L69.7017 366.01ZM93.27 383.088C102.589 386.608 112.85 388.273 123.909 388.273V368.273C114.851 368.273 107.042 366.911 100.338 364.378L93.27 383.088ZM123.909 388.273C134.992 388.273 145.099 386.672 154.003 383.174L146.69 364.559C140.639 366.936 133.122 368.273 123.909 368.273V388.273ZM153.966 383.189C162.837 379.744 170.298 374.712 175.793 367.813L160.15 355.352C157.278 358.957 152.988 362.114 146.727 364.544L153.966 383.189ZM175.844 367.749C181.46 360.58 184.247 352.202 184.247 343.023H164.247C164.247 347.907 162.851 351.903 160.099 355.416L175.844 367.749ZM184.247 343.023C184.247 334.462 181.621 326.653 175.954 320.328L161.057 333.672C163.046 335.892 164.247 338.765 164.247 343.023H184.247ZM176.098 320.492C171.093 314.653 164.291 310.17 156.303 306.732L148.396 325.103C154.472 327.718 158.441 330.624 160.913 333.508L176.098 320.492ZM156.345 306.751C148.719 303.426 139.675 300.547 129.324 298.051L124.637 317.494C134.224 319.806 142.093 322.356 148.354 325.085L156.345 306.751ZM129.426 298.076L99.2495 290.466L94.3584 309.858L124.535 317.469L129.426 298.076ZM99.2205 290.458C77.4251 285.031 60.975 276.861 49.2529 266.398L35.9346 281.318C50.739 294.533 70.4291 303.899 94.3875 309.866L99.2205 290.458ZM49.2806 266.423C38.4112 256.647 32.7542 243.534 32.8323 225.968L12.8325 225.879C12.7325 248.369 20.2498 267.213 35.9069 281.293L49.2806 266.423ZM32.8322 225.869C32.7538 211.437 36.5959 199.22 44.1486 188.797L27.9536 177.061C17.7034 191.207 12.7329 207.652 12.8325 225.978L32.8322 225.869ZM44.1687 188.769C51.9189 177.996 62.6356 169.449 76.6831 163.233L68.5896 144.943C51.6598 152.435 37.9864 163.116 27.9336 177.089L44.1687 188.769ZM76.6831 163.233C90.7023 157.029 106.914 153.807 125.511 153.807V133.807C104.586 133.807 85.5477 137.439 68.5896 144.943L76.6831 163.233ZM125.511 153.807C144.408 153.807 160.425 157.039 173.819 163.179L182.152 144.997C165.638 137.428 146.671 133.807 125.511 133.807V153.807ZM173.84 163.188C187.418 169.375 197.679 177.833 204.999 188.466L221.473 177.125C211.88 163.19 198.641 152.51 182.132 144.988L173.84 163.188ZM205.018 188.494C212.244 198.914 216.03 211.042 216.188 225.233L236.187 225.011C235.989 207.157 231.14 191.067 221.453 177.097L205.018 188.494ZM226.188 215.122H173.179V235.122H226.188V215.122ZM289.15 421H279.15V431H289.15V421ZM289.15 147.545V137.545H279.15V147.545H289.15ZM448.443 159.429L443.65 168.206L443.671 168.217L443.692 168.228L448.443 159.429ZM481.556 192.009L472.775 196.793L472.794 196.827L472.812 196.86L481.556 192.009ZM481.423 287.21L472.703 282.316L472.691 282.337L472.679 282.359L481.423 287.21ZM447.775 319.656L452.439 328.502L452.449 328.497L452.459 328.492L447.775 319.656ZM325.735 331.273H315.735V341.273H325.735V331.273ZM325.735 286.543V276.543H315.735V286.543H325.735ZM413.994 280.534L409.272 271.719L409.25 271.731L409.228 271.743L413.994 280.534ZM430.684 263.977L421.808 259.371L421.808 259.371L430.684 263.977ZM430.684 215.241L421.808 219.848L421.82 219.871L421.833 219.894L430.684 215.241ZM413.994 198.952L409.354 207.81L409.395 207.832L409.437 207.853L413.994 198.952ZM344.562 193.077V183.077H334.562V193.077H344.562ZM344.562 421V431H354.562V421H344.562ZM299.15 421V147.545H279.15V421H299.15ZM289.15 157.545H395.434V137.545H289.15V157.545ZM395.434 157.545C415.016 157.545 430.945 161.268 443.65 168.206L453.235 150.652C436.922 141.745 417.511 137.545 395.434 137.545V157.545ZM443.692 168.228C456.574 175.183 466.176 184.682 472.775 196.793L490.337 187.224C481.804 171.562 469.33 159.341 453.193 150.629L443.692 168.228ZM472.812 196.86C479.539 208.984 483.039 223.117 483.039 239.543H503.039C503.039 220.184 498.885 202.628 490.301 187.157L472.812 196.86ZM483.039 239.543C483.039 256.047 479.499 270.207 472.703 282.316L490.143 292.105C498.836 276.618 503.039 259 503.039 239.543H483.039ZM472.679 282.359C466.02 294.36 456.265 303.837 443.091 310.821L452.459 328.492C468.838 319.808 481.515 307.656 490.167 292.062L472.679 282.359ZM443.111 310.811C430.193 317.622 414.036 321.273 394.233 321.273V341.273C416.444 341.273 435.983 337.179 452.439 328.502L443.111 310.811ZM394.233 321.273H325.735V341.273H394.233V321.273ZM335.735 331.273V286.543H315.735V331.273H335.735ZM325.735 296.543H385.687V276.543H325.735V296.543ZM385.687 296.543C398.253 296.543 409.471 294.362 418.76 289.325L409.228 271.743C403.74 274.718 396.087 276.543 385.687 276.543V296.543ZM418.716 289.349C427.838 284.462 434.915 277.534 439.56 268.584L421.808 259.371C419.154 264.485 415.104 268.595 409.272 271.719L418.716 289.349ZM439.56 268.584C444.063 259.906 446.159 250.133 446.159 239.543H426.159C426.159 247.467 424.604 253.984 421.808 259.371L439.56 268.584ZM446.159 239.543C446.159 228.956 444.065 219.205 439.536 210.589L421.833 219.894C424.603 225.165 426.159 231.614 426.159 239.543H446.159ZM439.56 210.635C434.893 201.642 427.761 194.765 418.551 190.05L409.437 207.853C415.181 210.794 419.176 214.776 421.808 219.848L439.56 210.635ZM418.634 190.093C409.294 185.201 398.039 183.077 385.42 183.077V203.077C395.945 203.077 403.74 204.869 409.354 207.81L418.634 190.093ZM385.42 183.077H344.562V203.077H385.42V183.077ZM334.562 193.077V421H354.562V193.077H334.562ZM344.562 411H289.15V431H344.562V411ZM551.028 421H541.028V431H551.028V421ZM551.028 147.545V137.545H541.028V147.545H551.028ZM733.42 147.545H743.42V137.545H733.42V147.545ZM733.42 193.344V203.344H743.42V193.344H733.42ZM606.44 193.344V183.344H596.44V193.344H606.44ZM606.44 261.307H596.44V271.307H606.44V261.307ZM723.94 261.307H733.94V251.307H723.94V261.307ZM723.94 307.105V317.105H733.94V307.105H723.94ZM606.44 307.105V297.105H596.44V307.105H606.44ZM606.44 375.202H596.44V385.202H606.44V375.202ZM734.088 375.202H744.088V365.202H734.088V375.202ZM734.088 421V431H744.088V421H734.088ZM561.028 421V147.545H541.028V421H561.028ZM551.028 157.545H733.42V137.545H551.028V157.545ZM723.42 147.545V193.344H743.42V147.545H723.42ZM733.42 183.344H606.44V203.344H733.42V183.344ZM596.44 193.344V261.307H616.44V193.344H596.44ZM606.44 271.307H723.94V251.307H606.44V271.307ZM713.94 261.307V307.105H733.94V261.307H713.94ZM723.94 297.105H606.44V317.105H723.94V297.105ZM596.44 307.105V375.202H616.44V307.105H596.44ZM606.44 385.202H734.088V365.202H606.44V385.202ZM724.088 375.202V421H744.088V375.202H724.088ZM734.088 411H551.028V431H734.088V411ZM788.872 193.344H778.872V203.344H788.872V193.344ZM788.872 147.545V137.545H778.872V147.545H788.872ZM1011.45 147.545H1021.45V137.545H1011.45V147.545ZM1011.45 193.344V203.344H1021.45V193.344H1011.45ZM927.469 193.344V183.344H917.469V193.344H927.469ZM927.469 421V431H937.469V421H927.469ZM872.725 421H862.725V431H872.725V421ZM872.725 193.344H882.725V183.344H872.725V193.344ZM798.872 193.344V147.545H778.872V193.344H798.872ZM788.872 157.545H1011.45V137.545H788.872V157.545ZM1001.45 147.545V193.344H1021.45V147.545H1001.45ZM1011.45 183.344H927.469V203.344H1011.45V183.344ZM917.469 193.344V421H937.469V193.344H917.469ZM927.469 411H872.725V431H927.469V411ZM882.725 421V193.344H862.725V421H882.725ZM872.725 183.344H788.872V203.344H872.725V183.344ZM1289.26 360.247L1298.07 364.972L1298.07 364.972L1289.26 360.247ZM1243.59 408.182L1238.61 399.509L1238.6 399.514L1238.59 399.519L1243.59 408.182ZM1113.54 408.182L1108.51 416.827L1108.54 416.841L1108.56 416.854L1113.54 408.182ZM1068.01 360.114L1059.18 364.81L1059.19 364.824L1059.2 364.839L1068.01 360.114ZM1068.01 208.298L1059.2 203.573L1059.19 203.588L1059.18 203.602L1068.01 208.298ZM1113.54 160.364L1108.56 151.691L1108.55 151.696L1108.54 151.701L1113.54 160.364ZM1243.59 160.364L1238.59 169.026L1238.6 169.031L1238.61 169.036L1243.59 160.364ZM1289.26 208.298L1298.07 203.573L1298.07 203.573L1289.26 208.298ZM1241.05 234.335L1231.87 238.296L1231.89 238.332L1231.9 238.369L1241.05 234.335ZM1216.08 203.491L1210.59 211.844L1210.63 211.87L1210.67 211.896L1216.08 203.491ZM1141.18 203.491L1146.63 211.876L1146.64 211.87L1146.65 211.865L1141.18 203.491ZM1116.21 234.335L1107.05 230.324L1107.04 230.338L1107.04 230.352L1116.21 234.335ZM1116.21 334.344L1107.03 338.305L1107.04 338.341L1107.06 338.377L1116.21 334.344ZM1141.18 365.188L1135.68 373.54L1135.72 373.566L1135.76 373.593L1141.18 365.188ZM1216.08 365.188L1221.53 373.572L1221.54 373.566L1221.55 373.561L1216.08 365.188ZM1241.05 334.344L1231.89 330.332L1231.89 330.347L1231.88 330.361L1241.05 334.344ZM1296.08 284.273C1296.08 312.764 1290.71 336.378 1280.44 355.522L1298.07 364.972C1310.24 342.279 1316.08 315.244 1316.08 284.273H1296.08ZM1280.44 355.522C1270.05 374.913 1256.1 389.469 1238.61 399.509L1248.57 416.854C1269.53 404.819 1286.03 387.418 1298.07 364.972L1280.44 355.522ZM1238.59 399.519C1221.11 409.602 1201.23 414.739 1178.7 414.739V434.739C1204.41 434.739 1227.79 428.838 1248.59 416.844L1238.59 399.519ZM1178.7 414.739C1156.07 414.739 1136.09 409.599 1118.52 399.509L1108.56 416.854C1129.44 428.841 1152.9 434.739 1178.7 434.739V414.739ZM1118.57 399.537C1101.14 389.408 1087.23 374.797 1076.82 355.388L1059.2 364.839C1071.22 387.267 1087.66 404.702 1108.51 416.827L1118.57 399.537ZM1076.84 355.418C1066.65 336.263 1061.32 312.68 1061.32 284.273H1041.32C1041.32 315.149 1047.11 342.127 1059.18 364.81L1076.84 355.418ZM1061.32 284.273C1061.32 255.77 1066.65 232.145 1076.84 212.994L1059.18 203.602C1047.11 226.289 1041.32 253.313 1041.32 284.273H1061.32ZM1076.82 213.024C1087.22 193.62 1101.13 179.063 1118.54 169.026L1108.54 151.701C1087.67 163.74 1071.22 181.139 1059.2 203.573L1076.82 213.024ZM1118.52 169.036C1136.09 158.947 1156.07 153.807 1178.7 153.807V133.807C1152.9 133.807 1129.44 139.705 1108.56 151.691L1118.52 169.036ZM1178.7 153.807C1201.23 153.807 1221.11 158.944 1238.59 169.026L1248.59 151.701C1227.79 139.708 1204.41 133.807 1178.7 133.807V153.807ZM1238.61 169.036C1256.1 179.077 1270.05 193.632 1280.44 213.024L1298.07 203.573C1286.03 181.127 1269.53 163.726 1248.57 151.691L1238.61 169.036ZM1280.44 213.024C1290.71 232.167 1296.08 255.782 1296.08 284.273H1316.08C1316.08 253.302 1310.24 226.267 1298.07 203.573L1280.44 213.024ZM1260 284.273C1260 263.565 1256.88 245.454 1250.2 230.302L1231.9 238.369C1237.15 250.277 1240 265.457 1240 284.273H1260ZM1250.24 230.374C1243.7 215.228 1234.19 203.266 1221.5 195.086L1210.67 211.896C1219.52 217.603 1226.66 226.204 1231.87 238.296L1250.24 230.374ZM1221.58 195.139C1209.09 186.912 1194.67 182.943 1178.7 182.943V202.943C1191.22 202.943 1201.72 206.006 1210.59 211.844L1221.58 195.139ZM1178.7 182.943C1162.73 182.943 1148.28 186.912 1135.71 195.118L1146.65 211.865C1155.62 206.006 1166.18 202.943 1178.7 202.943V182.943ZM1135.73 195.107C1123.15 203.283 1113.66 215.221 1107.05 230.324L1125.37 238.347C1130.68 226.211 1137.84 217.587 1146.63 211.876L1135.73 195.107ZM1107.04 230.352C1100.46 245.489 1097.4 263.581 1097.4 284.273H1117.4C1117.4 265.441 1120.2 250.242 1125.38 238.318L1107.04 230.352ZM1097.4 284.273C1097.4 304.967 1100.47 323.093 1107.03 338.305L1125.39 330.383C1120.2 318.356 1117.4 303.101 1117.4 284.273H1097.4ZM1107.06 338.377C1113.68 353.387 1123.15 365.292 1135.68 373.54L1146.68 356.835C1137.84 351.018 1130.67 342.361 1125.36 330.31L1107.06 338.377ZM1135.76 373.593C1148.32 381.691 1162.76 385.602 1178.7 385.602V365.602C1166.16 365.602 1155.58 362.571 1146.6 356.782L1135.76 373.593ZM1178.7 385.602C1194.64 385.602 1209.04 381.691 1221.53 373.572L1210.64 356.803C1201.76 362.57 1191.24 365.602 1178.7 365.602V385.602ZM1221.55 373.561C1234.19 365.309 1243.69 353.381 1250.23 338.327L1231.88 330.361C1226.67 342.367 1219.52 351.002 1210.62 356.814L1221.55 373.561ZM1250.21 338.355C1256.88 323.128 1260 304.984 1260 284.273H1240C1240 303.085 1237.15 318.321 1231.89 330.332L1250.21 338.355ZM1596.5 147.545H1606.5V137.545H1596.5V147.545ZM1596.5 421V431H1606.5V421H1596.5ZM1548.3 421L1540.07 426.686L1543.05 431H1548.3V421ZM1426.39 244.616L1434.62 238.931L1431.63 234.616H1426.39V244.616ZM1424.39 244.616V234.616H1414.39V244.616H1424.39ZM1424.39 421V431H1434.39V421H1424.39ZM1368.98 421H1358.98V431H1368.98V421ZM1368.98 147.545V137.545H1358.98V147.545H1368.98ZM1417.84 147.545L1426.08 141.878L1423.1 137.545H1417.84V147.545ZM1539.08 323.795L1530.84 329.463L1533.82 333.795H1539.08V323.795ZM1541.49 323.795V333.795H1551.49V323.795H1541.49ZM1541.49 147.545V137.545H1531.49V147.545H1541.49ZM1586.5 147.545V421H1606.5V147.545H1586.5ZM1596.5 411H1548.3V431H1596.5V411ZM1556.52 415.314L1434.62 238.931L1418.16 250.302L1540.07 426.686L1556.52 415.314ZM1426.39 234.616H1424.39V254.616H1426.39V234.616ZM1414.39 244.616V421H1434.39V244.616H1414.39ZM1424.39 411H1368.98V431H1424.39V411ZM1378.98 421V147.545H1358.98V421H1378.98ZM1368.98 157.545H1417.84V137.545H1368.98V157.545ZM1409.61 153.213L1530.84 329.463L1547.32 318.128L1426.08 141.878L1409.61 153.213ZM1539.08 333.795H1541.49V313.795H1539.08V333.795ZM1551.49 323.795V147.545H1531.49V323.795H1551.49ZM1541.49 157.545H1596.5V137.545H1541.49V157.545Z" fill="#267CBA" mask="url(#path-1-outside-1_2_42)"/>
</svg>
